<svg width="97" height="317" fill="none" xmlns="http://www.w3.org/2000/svg">
  <path stroke="#fff" d="M48.5 0v206"/>
  <path d="M53.5 212c0 3.127-2.096 5.5-4.5 5.5s-4.5-2.373-4.5-5.5 2.096-5.5 4.5-5.5 4.5 2.373 4.5 5.5Z" fill="#111" stroke="#fff"/>
  <path fill="#111" stroke="#fff" d="M44.5 212.5h9v11h-9z"/>
  <circle cx="49" cy="268" r="8.5" fill="#fff" stroke="#fff"/>
  <mask id="a" fill="#fff">
    <path d="M97 268.5a48.5 48.5 0 1 0-97 0h97Z"/>
  </mask>
  <path d="M97 268.5a48.5 48.5 0 1 0-97 0h97Z" fill="#111" stroke="#fff" stroke-width="2" mask="url(#a)"/>
  <path d="M38.5 232.5c-6 2-18.3 7.3-19.5 12.5" stroke="#fff" stroke-linecap="round"/>
</svg>
