<svg width="97" height="317" viewBox="0 0 97 317" fill="none" xmlns="http://www.w3.org/2000/svg">
<line x1="48.5" y1="-2.18557e-08" x2="48.5" y2="206" stroke="white"/>
<path d="M53.5 212C53.5 215.127 51.4038 217.5 49 217.5C46.5962 217.5 44.5 215.127 44.5 212C44.5 208.873 46.5962 206.5 49 206.5C51.4038 206.5 53.5 208.873 53.5 212Z" fill="#111111" stroke="white"/>
<rect x="44.5" y="212.5" width="9" height="11" fill="#111111" stroke="white"/>
<circle cx="49" cy="268" r="8.5" fill="white" stroke="white"/>
<mask id="path-5-inside-1_0_1" fill="white">
<path d="M97 268.5C97 262.131 95.7455 255.824 93.3082 249.94C90.8708 244.056 87.2983 238.709 82.7947 234.205C78.291 229.702 72.9444 226.129 67.0601 223.692C61.1759 221.254 54.8691 220 48.5 220C42.1309 220 35.8241 221.254 29.9399 223.692C24.0556 226.129 18.709 229.702 14.2053 234.205C9.70168 238.709 6.12919 244.056 3.69184 249.94C1.25449 255.824 -5.56805e-07 262.131 0 268.5L48.5 268.5H97Z"/>
</mask>
<path d="M97 268.5C97 262.131 95.7455 255.824 93.3082 249.94C90.8708 244.056 87.2983 238.709 82.7947 234.205C78.291 229.702 72.9444 226.129 67.0601 223.692C61.1759 221.254 54.8691 220 48.5 220C42.1309 220 35.8241 221.254 29.9399 223.692C24.0556 226.129 18.709 229.702 14.2053 234.205C9.70168 238.709 6.12919 244.056 3.69184 249.94C1.25449 255.824 -5.56805e-07 262.131 0 268.5L48.5 268.5H97Z" fill="#111111" stroke="white" stroke-width="2" mask="url(#path-5-inside-1_0_1)"/>
<path d="M38.5 232.5C32.5 234.5 20.2 239.8 19 245" stroke="white" stroke-linecap="round"/>
</svg>
